<svg width="40" height="40" viewBox="0 0 40 40" fill="none" xmlns="http://www.w3.org/2000/svg">
<g clip-path="url(#clip0_23_25)">
<path fill-rule="evenodd" clip-rule="evenodd" d="M9.90001 9.89999C10.3688 9.43182 11.0042 9.16885 11.6667 9.16885C12.3292 9.16885 12.9646 9.43182 13.4333 9.89999L20 16.4633L26.5667 9.89665C27.0384 9.44148 27.67 9.18978 28.3255 9.19579C28.981 9.20179 29.6079 9.46501 30.0712 9.92875C30.5345 10.3925 30.7971 11.0196 30.8025 11.6751C30.8079 12.3306 30.5556 12.962 30.1 13.4333L21.7667 21.7667C21.2979 22.2348 20.6625 22.4978 20 22.4978C19.3375 22.4978 18.7021 22.2348 18.2333 21.7667L9.90001 13.4333C9.66769 13.2012 9.4834 12.9255 9.35766 12.6221C9.23192 12.3186 9.16721 11.9934 9.16721 11.665C9.16721 11.3365 9.23192 11.0113 9.35766 10.7079C9.4834 10.4045 9.66769 10.1288 9.90001 9.89665V9.89999ZM9.90001 19.9C10.3688 19.4318 11.0042 19.1689 11.6667 19.1689C12.3292 19.1689 12.9646 19.4318 13.4333 19.9L20 26.4633L26.5667 19.8967C27.0384 19.4415 27.67 19.1898 28.3255 19.1958C28.981 19.2018 29.6079 19.465 30.0712 19.9287C30.5345 20.3925 30.7971 21.0196 30.8025 21.6751C30.8079 22.3306 30.5556 22.962 30.1 23.4333L21.7667 31.7667C21.2979 32.2348 20.6625 32.4978 20 32.4978C19.3375 32.4978 18.7021 32.2348 18.2333 31.7667L9.90001 23.4333C9.66769 23.2012 9.4834 22.9255 9.35766 22.6221C9.23192 22.3186 9.16721 21.9934 9.16721 21.665C9.16721 21.3365 9.23192 21.0113 9.35766 20.7079C9.4834 20.4045 9.66769 20.1288 9.90001 19.8967V19.9Z" fill="#F6F6F6"/>
</g>
<defs>
<clipPath id="clip0_23_25">
<rect width="40" height="40" fill="white"/>
</clipPath>
</defs>
</svg>
